<svg width="1920" height="146" viewBox="0 0 1920 146" fill="none" xmlns="http://www.w3.org/2000/svg">
<path d="M318.418 105.823C315.339 105.823 312.919 103.408 312.919 100.334V93.5278H315.632V100.334C315.632 101.871 316.878 103.042 318.344 103.042C319.81 103.042 321.057 101.797 321.057 100.334V93.5278H323.769L322.596 100.334C322.743 103.334 320.763 105.823 318.418 105.823Z" fill="#009FA6"/>
<path d="M343.343 102.895C340.337 102.895 337.844 100.407 337.844 97.4065V93.5278H340.557V97.4065C340.557 98.9433 341.803 100.114 343.269 100.114C344.736 100.114 345.982 98.8702 345.982 97.4065V93.5278H348.621L347.228 96.6015C347.301 100.48 346.642 102.895 343.343 102.895Z" fill="#009FA6"/>
<path d="M364.969 93.5278H362.256V105.383H364.969V93.5278Z" fill="#009FA6"/>
<path d="M354.192 93.5278H351.48V105.383H354.192V93.5278Z" fill="#009FA6"/>
<path d="M323.916 93.5278H321.203V105.383H323.916V93.5278Z" fill="#009FA6"/>
<path d="M444.509 105.823C441.43 105.823 439.011 103.408 439.011 100.334V93.5278H441.723V100.334C441.723 101.871 442.97 103.042 444.436 103.042C445.902 103.042 447.148 101.797 447.148 100.334V93.5278H449.861L448.688 100.334C448.834 103.334 446.855 105.823 444.509 105.823Z" fill="#009FA6"/>
<path d="M450.007 93.5278H447.295V105.383H450.007V93.5278Z" fill="#009FA6"/>
<path d="M444.509 93.3814C443.336 93.3814 442.383 92.4301 442.383 91.2591V90.6737H446.635V91.2591C446.708 92.4301 445.682 93.3814 444.509 93.3814Z" fill="#009FA6"/>
<path d="M343.343 106.993C340.777 106.993 338.871 105.676 338.431 105.383L339.751 103.261C340.85 103.92 342.023 104.286 343.269 104.286C344.662 104.286 346.275 103.115 346.275 101.578L345.982 100.627V93.6742H348.694V101.651C348.768 104.505 346.348 106.993 343.343 106.993Z" fill="#009FA6"/>
<path d="M385.422 102.895C382.416 102.895 379.924 100.407 379.924 97.4065V93.5278H382.636V97.4065C382.636 98.9433 383.883 100.114 385.349 100.114C386.888 100.114 388.061 98.8702 388.061 97.4065V93.5278H390.7L389.307 96.6015C389.381 100.48 388.721 102.895 385.422 102.895Z" fill="#009FA6"/>
<path d="M385.422 106.993C382.856 106.993 380.95 105.676 380.51 105.383L381.83 103.261C382.93 103.92 384.102 104.286 385.349 104.286C386.742 104.286 388.354 103.115 388.354 101.578L388.061 100.627V93.6742H390.774V101.651C390.92 104.505 388.501 106.993 385.422 106.993Z" fill="#009FA6"/>
<path d="M357.051 103.261L351.553 94.406L352.946 93.5278H354.266L358.224 99.8947L362.11 93.5278H363.503L364.822 94.406L359.324 103.261H357.051Z" fill="#009FA6"/>
<path d="M328.168 99.5288V98.1383H331.687C332.273 98.1383 332.786 97.6261 332.786 97.0406C332.786 96.6015 332.566 96.2356 332.126 96.016C332.053 96.016 331.687 95.8697 330.953 95.8697C330.807 95.8697 330.587 95.8697 330.367 95.8697C329.414 95.9428 328.388 96.1624 327.141 96.6015L326.408 94.2596C326.848 94.0401 328.534 93.4546 330.074 93.2351C330.367 93.2351 330.66 93.1619 330.953 93.1619C332.126 93.1619 332.933 93.4546 333.226 93.601C334.546 94.2596 335.352 95.5037 335.352 96.9674C335.352 98.7238 334.179 99.4556 331.613 99.4556H328.168V99.5288Z" fill="#009FA6"/>
<path d="M331.173 105.749C330.88 105.749 330.587 105.749 330.294 105.676C328.534 105.457 326.628 104.798 326.115 104.578L326.921 102.09L327.068 102.163C328.461 102.602 329.561 102.822 330.587 102.968C330.807 102.968 331.027 102.968 331.247 102.968C332.053 102.968 332.493 102.749 332.493 102.749C332.859 102.529 333.153 102.163 333.153 101.724C333.153 101.066 332.64 100.553 331.98 100.553H328.241V98.5042H331.98C333.886 98.5042 335.938 99.3824 335.938 101.724C335.938 103.261 335.059 104.652 333.739 105.31C333.373 105.457 332.566 105.749 331.173 105.749Z" fill="#009FA6"/>
<path d="M419.657 93.5278H416.945V105.383H419.657V93.5278Z" fill="#009FA6"/>
<path d="M436.812 93.5278H434.099V105.383H436.812V93.5278Z" fill="#009FA6"/>
<path d="M411.227 93.5278H408.514V105.383H411.227V93.5278Z" fill="#009FA6"/>
<path d="M418.118 98.1383H409.247V100.846H418.118V98.1383Z" fill="#009FA6"/>
<path d="M403.896 107.945V105.457H395.172V107.945H392.46V104.652C392.46 103.554 393.339 102.676 394.439 102.676H404.702C405.802 102.676 406.682 103.554 406.682 104.652V107.945H403.896Z" fill="#009FA6"/>
<path d="M395.465 105.457L393.999 103.993V98.4311C393.999 95.4306 396.418 92.9424 399.497 92.9424C402.503 92.9424 404.996 95.4306 404.996 98.4311V103.993L403.529 105.457H395.465ZM399.497 95.7233C397.958 95.7233 396.785 96.9674 396.785 98.4311V102.676H402.283V98.4311C402.283 96.9674 401.037 95.7233 399.497 95.7233Z" fill="#009FA6"/>
<path d="M427.208 105.749C424.349 105.749 422.003 103.408 422.003 100.553C422.003 99.9679 422.296 99.8947 422.81 99.8947C423.25 99.8947 423.909 99.8216 423.909 98.8702C423.909 97.5529 424.862 95.5038 427.428 95.3574C427.501 95.3574 427.648 95.3574 427.721 95.3574C430.507 95.3574 432.633 97.5529 432.633 100.553C432.633 103.408 430.287 105.749 427.428 105.749H427.208ZM427.208 98.1383C425.889 98.1383 424.789 99.2361 424.789 100.553C424.789 101.871 425.889 102.968 427.208 102.968H427.428C428.748 102.968 429.847 101.871 429.847 100.553C429.847 99.2361 428.748 98.1383 427.428 98.1383H427.208Z" fill="#009FA6"/>
<path d="M424.716 93.5278H422.003V100.407H424.716V93.5278Z" fill="#009FA6"/>
<path d="M373.326 103.627C373.253 103.627 373.106 103.627 373.033 103.627C370.467 103.481 369.514 101.432 369.514 100.114C369.514 99.1629 368.854 99.1629 368.414 99.0897C367.901 99.0897 367.608 99.0165 367.608 98.4311C367.608 95.5769 369.954 93.2351 372.813 93.2351H373.033C375.892 93.2351 378.238 95.5769 378.238 98.4311C378.238 101.358 376.112 103.627 373.326 103.627ZM372.813 96.016C371.493 96.016 370.394 97.1138 370.394 98.4311C370.394 99.7484 371.493 100.846 372.813 100.846H373.033C374.352 100.846 375.452 99.7484 375.452 98.4311C375.452 97.1138 374.352 96.016 373.033 96.016H372.813Z" fill="#009FA6"/>
<path d="M370.32 98.5774H367.608V105.457H370.32V98.5774Z" fill="#009FA6"/>
<path d="M315.705 112.189H312.993V124.045H315.705V112.189Z" fill="#009FA6"/>
<path d="M322.01 112.189H312.993V114.897H322.01V112.189Z" fill="#009FA6"/>
<path d="M375.892 126.607V124.118H367.168V126.607H364.456V123.313C364.456 122.216 365.335 121.337 366.435 121.337H376.698C377.798 121.337 378.678 122.216 378.678 123.313V126.607H375.892Z" fill="#009FA6"/>
<path d="M367.461 124.045L365.995 122.581V117.093C365.995 114.092 368.488 111.604 371.493 111.604C374.499 111.604 376.991 114.092 376.991 117.093V122.655L375.525 124.118H367.461V124.045ZM371.493 114.312C369.954 114.312 368.781 115.556 368.781 117.02V121.264H374.279V117.093C374.206 115.556 373.033 114.312 371.493 114.312Z" fill="#009FA6"/>
<path d="M343.416 122.216C343.343 122.216 343.196 122.216 343.123 122.216C340.557 122.069 339.604 120.02 339.604 118.703C339.604 117.751 338.944 117.751 338.504 117.678C337.991 117.678 337.698 117.605 337.698 117.02C337.698 114.165 340.044 111.824 342.903 111.824H343.123C345.982 111.824 348.328 114.165 348.328 117.02C348.328 120.02 346.202 122.216 343.416 122.216ZM342.903 114.605C341.583 114.605 340.484 115.702 340.484 117.02C340.484 118.337 341.583 119.435 342.903 119.435H343.123C344.442 119.435 345.542 118.337 345.542 117.02C345.542 115.702 344.442 114.605 343.123 114.605H342.903Z" fill="#009FA6"/>
<path d="M340.41 117.166H337.698V124.045H340.41V117.166Z" fill="#009FA6"/>
<path d="M329.267 124.704C325.675 124.704 322.743 121.776 322.743 118.19C322.743 114.604 325.675 111.677 329.267 111.677C332.859 111.677 335.792 114.604 335.792 118.19C335.792 121.776 332.859 124.704 329.267 124.704ZM329.267 114.385C327.141 114.385 325.455 116.068 325.455 118.19C325.455 120.313 327.141 121.996 329.267 121.996C331.393 121.996 333.079 120.313 333.079 118.19C333.079 116.068 331.32 114.385 329.267 114.385Z" fill="#009FA6"/>
<path d="M356.758 124.704C353.166 124.704 350.234 121.776 350.234 118.19C350.234 114.604 353.166 111.677 356.758 111.677C360.35 111.677 363.283 114.604 363.283 118.19C363.283 121.776 360.35 124.704 356.758 124.704ZM356.758 114.385C354.632 114.385 352.946 116.068 352.946 118.19C352.946 120.313 354.632 121.996 356.758 121.996C358.884 121.996 360.57 120.313 360.57 118.19C360.57 116.068 358.811 114.385 356.758 114.385Z" fill="#009FA6"/>
<path d="M383.736 75.7443V80.9403H387.915V75.7443L385.862 72.8902L383.736 75.7443Z" fill="url(#paint0_linear_7_32)"/>
<path d="M349.061 69.0847C347.888 69.0847 346.935 70.0361 346.935 71.207V76.1835H351.113V71.207C351.187 70.0361 350.234 69.0847 349.061 69.0847Z" fill="url(#paint1_linear_7_32)"/>
<path d="M376.625 52.399C375.232 52.399 374.132 53.4967 374.132 54.8872C374.132 56.2777 375.232 57.3754 376.625 57.3754C378.018 57.3754 379.117 56.2777 379.117 54.8872C379.117 53.4967 378.018 52.399 376.625 52.399Z" fill="url(#paint2_linear_7_32)"/>
<path d="M369.514 80.1353H365.335V87.0145H369.514V80.1353Z" fill="url(#paint3_linear_7_32)"/>
<path d="M360.35 41.6411H356.172V48.9594H360.35V41.6411Z" fill="url(#paint4_linear_7_32)"/>
<path d="M1920.5 83.5017H396.858V66.816L387.695 54.5945V53.4967C387.695 49.1789 385.129 45.2271 381.17 43.4707C379.924 42.8852 378.971 42.0802 378.384 40.9824L376.772 37.9819L375.159 40.9824C374.572 42.0802 373.619 42.9584 372.373 43.4707C371.273 43.9829 370.247 44.6416 369.441 45.3734V37.4697L364.969 33.0787L358.444 21.5158L351.92 33.0787L347.448 37.4697V49.5448L346.055 51.8135C340.704 52.9113 336.891 56.7168 336.891 61.1078C336.891 62.6446 337.331 64.1814 338.284 65.4987V83.4286H0V87.0145H338.064H341.657V64.401L341.29 63.8887C340.63 63.0105 340.264 62.1323 340.264 61.1078C340.264 58.2536 343.196 55.8386 347.228 55.2531L348.034 55.1068L348.987 53.5699L349.94 55.1068L350.747 55.2531C354.779 55.8386 357.711 58.3268 357.711 61.1078C357.711 62.0591 357.345 63.0105 356.685 63.8887L356.465 64.401V87.0877H360.057V77.7935C360.057 73.6952 363.356 70.402 367.461 70.402C371.567 70.402 374.866 73.6952 374.866 77.7935V87.0877H378.458V77.7935V67.987L385.862 58.1804L393.266 67.987V87.0877H396.858H1920.5V83.5017ZM360.057 69.6702V65.5719C360.937 64.1814 361.45 62.7178 361.45 61.1809C361.45 56.79 357.638 52.9844 352.286 51.8867L350.893 49.618V39.0065L354.706 35.2742L358.298 28.8341L361.89 35.2742L365.702 39.0065V53.4967V66.8892C363.503 67.2551 361.597 68.2797 360.057 69.6702ZM374.866 66.816V69.6702C373.326 68.2797 371.42 67.3283 369.221 66.9624V53.4967C369.221 50.5694 370.98 47.9348 373.619 46.7639C374.792 46.2516 375.745 45.593 376.625 44.7148C377.431 45.5198 378.458 46.2516 379.631 46.7639C382.343 47.9348 384.029 50.5694 384.029 53.4967V54.5945L374.866 66.816Z" fill="url(#paint5_linear_7_32)"/>
<path d="M383.956 116.654V112.116H384.396V116.215H387.108V112.116H387.548V116.654H383.956ZM387.841 117.751V116.58L387.988 116.727H387.108V116.288H388.281V117.751H387.841Z" fill="#E62638"/>
<path d="M389.674 116.288H392.386V116.727H389.161V112.189H392.24V112.629H389.601V116.288H389.674ZM389.601 114.165H392.02V114.604H389.601V114.165Z" fill="#E62638"/>
<path d="M393.853 116.654H393.339V112.116H393.853V116.654ZM396.712 114.604H393.779V114.165H396.712V114.604ZM396.638 112.189H397.078V116.727H396.638V112.189Z" fill="#E62638"/>
<path d="M399.497 116.654V112.409L399.644 112.555H397.958V112.116H401.623V112.555H399.937L400.084 112.409V116.654H399.497Z" fill="#E62638"/>
<path d="M402.283 116.654V112.116H403.969C404.336 112.116 404.702 112.189 404.922 112.336C405.142 112.482 405.435 112.629 405.582 112.848C405.729 113.068 405.802 113.36 405.802 113.653C405.802 113.946 405.729 114.239 405.582 114.458C405.435 114.678 405.215 114.897 404.922 114.97C404.629 115.044 404.336 115.19 403.969 115.19H402.576L402.796 114.97V116.58H402.283V116.654ZM402.796 115.044L402.576 114.824H403.969C404.409 114.824 404.776 114.751 404.996 114.531C405.215 114.312 405.362 114.092 405.362 113.726C405.362 113.36 405.215 113.068 404.996 112.921C404.776 112.775 404.409 112.629 403.969 112.629H402.576L402.796 112.409V115.044Z" fill="#E62638"/>
<path d="M407.781 116.654L409.834 112.116H410.274L412.326 116.654H411.813L409.907 112.409H410.127L408.221 116.654H407.781ZM408.588 115.483L408.734 115.117H411.373L411.52 115.483H408.588Z" fill="#E62638"/>
<path d="M412.473 117.678V116.288H417.311V117.678H416.872V116.654H412.913V117.678H412.473ZM416.139 116.434V112.555H414.013L413.939 113.653C413.939 114.019 413.939 114.312 413.866 114.604C413.793 114.897 413.793 115.19 413.719 115.41C413.646 115.629 413.573 115.849 413.499 115.995C413.426 116.141 413.279 116.215 413.133 116.288L412.62 116.215C412.766 116.215 412.913 116.141 413.06 115.995C413.206 115.849 413.279 115.702 413.353 115.41C413.426 115.117 413.426 114.897 413.499 114.531C413.573 114.165 413.573 113.873 413.573 113.507L413.646 112.043H416.652V116.288H416.139V116.434Z" fill="#E62638"/>
<path d="M417.531 116.654L419.584 112.116H420.024L422.077 116.654H421.563L419.657 112.409H419.877L417.971 116.654H417.531ZM418.338 115.483L418.484 115.117H421.124L421.27 115.483H418.338Z" fill="#E62638"/>
<path d="M422.956 116.654V112.116H426.768V116.654H426.328V112.409L426.475 112.555H423.396L423.543 112.409V116.654H422.956Z" fill="#E62638"/>
<path d="M429.114 116.654V112.409L429.261 112.555H427.575V112.116H431.24V112.555H429.554L429.701 112.409V116.654H429.114Z" fill="#E62638"/>
<path d="M431.02 116.654L433.073 112.116H433.513L435.565 116.654H435.052L433.146 112.409H433.366L431.46 116.654H431.02ZM431.827 115.483L431.973 115.117H434.612L434.759 115.483H431.827Z" fill="#E62638"/>
<path d="M436.445 116.654V112.116H436.885V116.215H439.597V112.116H440.037V116.654H436.445ZM440.404 117.751V116.58L440.55 116.727H439.671V116.288H440.844V117.751H440.404Z" fill="#E62638"/>
<path d="M441.284 116.654V112.116H441.723V115.849L444.582 112.116H445.022V116.654H444.582V112.921L441.723 116.654H441.284Z" fill="#E62638"/>
<path d="M446.122 116.654V112.116H446.562V115.849L449.421 112.116H449.861V116.654H449.421V112.921L446.562 116.654H446.122Z" fill="#E62638"/>
<path d="M383.956 124.045V119.508H384.396V123.24L387.255 119.508H387.695V124.045H387.255V120.313L384.396 124.045H383.956Z" fill="#E62638"/>
<path d="M390.774 124.045V119.508H392.46C392.826 119.508 393.193 119.581 393.413 119.727C393.633 119.874 393.926 120.02 394.073 120.24C394.219 120.459 394.292 120.752 394.292 121.045C394.292 121.337 394.219 121.63 394.073 121.85C393.926 122.069 393.706 122.289 393.413 122.362C393.119 122.435 392.826 122.581 392.46 122.581H391.067L391.287 122.362V123.972H390.774V124.045ZM391.287 122.435L391.067 122.216H392.46C392.9 122.216 393.266 122.142 393.486 121.923C393.706 121.703 393.853 121.484 393.853 121.118C393.853 120.752 393.706 120.459 393.486 120.313C393.266 120.166 392.9 120.02 392.46 120.02H391.067L391.287 119.8V122.435Z" fill="#E62638"/>
<path d="M394.366 124.045L396.418 119.508H396.858L398.911 124.045H398.398L396.492 119.8H396.712L394.806 124.045H394.366ZM395.172 122.874L395.319 122.508H397.958L398.105 122.874H395.172Z" fill="#E62638"/>
<path d="M399.204 123.533L399.351 123.167C399.571 123.313 399.791 123.46 400.011 123.533C400.23 123.606 400.524 123.679 400.744 123.679C400.964 123.679 401.257 123.679 401.403 123.606C401.55 123.533 401.77 123.46 401.917 123.313C402.063 123.167 402.137 123.021 402.137 122.801C402.137 122.508 402.063 122.362 401.843 122.216C401.623 122.069 401.33 121.996 400.964 121.996H400.011V121.63H400.964C401.257 121.63 401.55 121.557 401.697 121.411C401.843 121.264 401.99 121.118 401.99 120.825C401.99 120.679 401.917 120.532 401.843 120.386C401.77 120.24 401.623 120.166 401.403 120.093C401.183 120.02 401.037 120.02 400.817 120.02C400.597 120.02 400.377 120.02 400.157 120.093C399.937 120.166 399.717 120.24 399.497 120.386L399.351 120.02C399.644 119.874 399.864 119.727 400.157 119.654C400.45 119.581 400.744 119.581 400.964 119.581C401.183 119.581 401.477 119.654 401.697 119.8C401.917 119.947 402.063 120.02 402.21 120.24C402.356 120.459 402.43 120.606 402.43 120.825C402.43 121.045 402.356 121.264 402.283 121.411C402.21 121.557 401.99 121.703 401.843 121.776C401.697 121.85 401.403 121.923 401.183 121.923V121.776C401.477 121.776 401.77 121.85 401.99 121.923C402.21 121.996 402.356 122.142 402.503 122.289C402.65 122.435 402.723 122.655 402.723 122.874C402.723 123.094 402.65 123.313 402.576 123.46C402.503 123.606 402.283 123.752 402.137 123.899C401.99 124.045 401.697 124.118 401.477 124.118C401.257 124.118 400.964 124.191 400.744 124.191C400.524 124.191 400.23 124.118 400.011 124.045C399.791 123.972 399.424 123.679 399.204 123.533Z" fill="#E62638"/>
<path d="M403.749 124.045V119.508H405.655C406.169 119.508 406.535 119.581 406.755 119.8C406.975 120.02 407.195 120.313 407.195 120.679C407.195 121.045 407.048 121.337 406.828 121.557C406.608 121.776 406.242 121.85 405.802 121.85L405.875 121.703C406.388 121.703 406.755 121.776 407.048 121.996C407.341 122.216 407.415 122.508 407.415 122.874C407.415 123.24 407.268 123.533 406.975 123.752C406.682 123.972 406.315 124.045 405.729 124.045H403.749ZM404.262 121.63H405.655C406.022 121.63 406.242 121.557 406.462 121.411C406.682 121.264 406.755 121.045 406.755 120.825C406.755 120.605 406.682 120.313 406.462 120.24C406.242 120.166 406.022 120.02 405.655 120.02H404.262V121.63ZM404.262 123.679H405.802C406.169 123.679 406.462 123.606 406.682 123.46C406.902 123.313 406.975 123.094 406.975 122.801C406.975 122.508 406.902 122.289 406.682 122.142C406.462 121.996 406.169 121.923 405.802 121.923H404.262V123.679Z" fill="#E62638"/>
<path d="M408.514 124.045V119.508H408.954V123.24L411.813 119.508H412.253V124.045H411.813V120.313L408.954 124.045H408.514Z" fill="#E62638"/>
<path d="M414.672 124.045V119.8L414.819 119.947H413.133V119.508H416.798V119.947H415.112L415.259 119.8V124.045H414.672Z" fill="#E62638"/>
<path d="M417.458 124.045V119.508H417.898V123.24L420.757 119.508H421.197V124.045H420.757V120.313L417.898 124.045H417.458Z" fill="#E62638"/>
<path d="M425.449 124.045V122.581L425.595 122.728H424.129C423.763 122.728 423.469 122.655 423.176 122.508C422.883 122.362 422.736 122.216 422.59 121.996C422.443 121.776 422.37 121.484 422.37 121.191C422.37 120.825 422.443 120.532 422.59 120.313C422.736 120.093 422.956 119.874 423.176 119.8C423.396 119.727 423.763 119.581 424.129 119.581H425.889V124.118H425.449V124.045ZM422.37 124.045L423.469 122.435H423.983L422.883 124.045H422.37ZM425.449 122.435V119.8L425.595 119.947H424.203C423.763 119.947 423.469 120.02 423.25 120.24C423.03 120.459 422.883 120.752 422.883 121.118C422.883 121.484 422.956 121.776 423.176 121.996C423.396 122.216 423.689 122.289 424.129 122.289H425.595L425.449 122.435Z" fill="#E62638"/>
<defs>
<linearGradient id="paint0_linear_7_32" x1="335.785" y1="76.9482" x2="399.751" y2="76.9482" gradientUnits="userSpaceOnUse">
<stop offset="0.0744048" stop-color="#006F84"/>
<stop offset="0.5413" stop-color="#00ADB2"/>
<stop offset="0.9415" stop-color="#63BA8C"/>
</linearGradient>
<linearGradient id="paint1_linear_7_32" x1="335.785" y1="72.6365" x2="399.751" y2="72.6365" gradientUnits="userSpaceOnUse">
<stop offset="0.0744048" stop-color="#006F84"/>
<stop offset="0.5413" stop-color="#00ADB2"/>
<stop offset="0.9415" stop-color="#63BA8C"/>
</linearGradient>
<linearGradient id="paint2_linear_7_32" x1="335.785" y1="54.9039" x2="399.751" y2="54.9039" gradientUnits="userSpaceOnUse">
<stop offset="0.0744048" stop-color="#006F84"/>
<stop offset="0.5413" stop-color="#00ADB2"/>
<stop offset="0.9415" stop-color="#63BA8C"/>
</linearGradient>
<linearGradient id="paint3_linear_7_32" x1="335.785" y1="83.6034" x2="399.751" y2="83.6034" gradientUnits="userSpaceOnUse">
<stop offset="0.0744048" stop-color="#006F84"/>
<stop offset="0.5413" stop-color="#00ADB2"/>
<stop offset="0.9415" stop-color="#63BA8C"/>
</linearGradient>
<linearGradient id="paint4_linear_7_32" x1="335.785" y1="45.2849" x2="399.751" y2="45.2849" gradientUnits="userSpaceOnUse">
<stop offset="0.0744048" stop-color="#006F84"/>
<stop offset="0.5413" stop-color="#00ADB2"/>
<stop offset="0.9415" stop-color="#63BA8C"/>
</linearGradient>
<linearGradient id="paint5_linear_7_32" x1="335.785" y1="54.2783" x2="399.751" y2="54.2783" gradientUnits="userSpaceOnUse">
<stop offset="0.0744048" stop-color="#006F84"/>
<stop offset="0.5413" stop-color="#00ADB2"/>
<stop offset="0.9415" stop-color="#63BA8C"/>
</linearGradient>
</defs>
</svg>
