<svg width="244" height="64" viewBox="0 0 244 64" fill="none" xmlns="http://www.w3.org/2000/svg">
<path d="M9.77456 26.9817C4.30108 26.9817 0.000488281 22.6802 0.000488281 17.2057V5.0835H4.82236V17.2057C4.82236 19.943 7.03782 22.0285 9.64424 22.0285C12.2507 22.0285 14.4661 19.8126 14.4661 17.2057V5.0835H19.288L17.2029 17.2057C17.4635 22.5499 13.9448 26.9817 9.77456 26.9817Z" fill="#009FA6"/>
<path d="M54.0836 21.7678C48.7405 21.7678 44.3096 17.336 44.3096 11.9919V5.0835H49.1314V11.9919C49.1314 14.7291 51.3469 16.8147 53.9533 16.8147C56.5597 16.8147 58.7752 14.5988 58.7752 11.9919V5.0835H63.4667L60.9906 10.558C61.121 17.4664 59.9481 21.7678 54.0836 21.7678Z" fill="#009FA6"/>
<path d="M92.5284 5.0835H87.7065V26.1996H92.5284V5.0835Z" fill="#009FA6"/>
<path d="M73.3711 5.0835H68.5492V26.1996H73.3711V5.0835Z" fill="#009FA6"/>
<path d="M19.5487 5.0835H14.7268V26.1996H19.5487V5.0835Z" fill="#009FA6"/>
<path d="M233.927 26.9817C228.453 26.9817 224.152 22.6802 224.152 17.2057V5.0835H228.974V17.2057C228.974 19.943 231.19 22.0285 233.796 22.0285C236.403 22.0285 238.618 19.8126 238.618 17.2057V5.0835H243.44L241.355 17.2057C241.615 22.5499 238.097 26.9817 233.927 26.9817Z" fill="#009FA6"/>
<path d="M243.701 5.0835H238.879V26.1996H243.701V5.0835Z" fill="#009FA6"/>
<path d="M233.927 4.82281C231.842 4.82281 230.147 3.1283 230.147 1.04276V0H237.706V1.04276C237.836 3.1283 236.012 4.82281 233.927 4.82281Z" fill="#009FA6"/>
<path d="M54.0837 29.0672C49.5224 29.0672 46.1341 26.721 45.3522 26.1996L47.698 22.4196C49.6528 23.5927 51.7379 24.2444 53.9534 24.2444C56.4295 24.2444 59.2965 22.1589 59.2965 19.4216L58.7752 17.7271V5.34424H63.5971V19.552C63.7274 24.6355 59.4268 29.0672 54.0837 29.0672Z" fill="#009FA6"/>
<path d="M128.888 21.7678C123.545 21.7678 119.114 17.336 119.114 11.9919V5.0835H123.936V11.9919C123.936 14.7291 126.151 16.8147 128.758 16.8147C131.494 16.8147 133.58 14.5988 133.58 11.9919V5.0835H138.271L135.795 10.558C135.925 17.4664 134.752 21.7678 128.888 21.7678Z" fill="#009FA6"/>
<path d="M128.888 29.0672C124.327 29.0672 120.938 26.721 120.156 26.1996L122.502 22.4196C124.457 23.5927 126.542 24.2444 128.758 24.2444C131.234 24.2444 134.101 22.1589 134.101 19.4216L133.58 17.7271V5.34424H138.401V19.552C138.662 24.6355 134.361 29.0672 128.888 29.0672Z" fill="#009FA6"/>
<path d="M78.4536 22.4195L68.6796 6.64765L71.1557 5.0835H73.5014L80.5388 16.4236L87.4458 5.0835H89.9219L92.2677 6.64765L82.4936 22.4195H78.4536Z" fill="#009FA6"/>
<path d="M27.1071 15.7718V13.2952H33.3625C34.405 13.2952 35.3173 12.3828 35.3173 11.34C35.3173 10.5579 34.9263 9.90617 34.1444 9.51514C34.0141 9.51514 33.3625 9.25445 32.0593 9.25445C31.7986 9.25445 31.4077 9.25445 31.0167 9.25445C29.3225 9.38479 27.498 9.77583 25.2826 10.5579L23.9794 6.38683C24.7613 5.9958 27.7587 4.95302 30.4954 4.56198C31.0167 4.56198 31.538 4.43164 32.0593 4.43164C34.1444 4.43164 35.5779 4.95302 36.0992 5.21372C38.445 6.38683 39.8785 8.60272 39.8785 11.2096C39.8785 14.338 37.7934 15.6414 33.2322 15.6414H27.1071V15.7718Z" fill="#009FA6"/>
<path d="M32.4504 26.8515C31.9291 26.8515 31.4078 26.8515 30.8865 26.7212C27.7588 26.3301 24.3705 25.157 23.4583 24.766L24.8918 20.3342L25.1524 20.4646C27.6285 21.2467 29.5833 21.6377 31.4078 21.8984C31.7988 21.8984 32.1898 21.8984 32.5807 21.8984C34.0142 21.8984 34.7962 21.5073 34.7962 21.5073C35.4478 21.1163 35.9691 20.4646 35.9691 19.6825C35.9691 18.5094 35.0568 17.5969 33.8839 17.5969H27.2376V13.9473H33.8839C37.2723 13.9473 40.9213 15.5114 40.9213 19.6825C40.9213 22.4198 39.3574 24.8963 37.0116 26.0695C36.36 26.3301 34.9265 26.8515 32.4504 26.8515Z" fill="#009FA6"/>
<path d="M189.748 5.0835H184.926V26.1996H189.748V5.0835Z" fill="#009FA6"/>
<path d="M220.243 5.0835H215.421V26.1996H220.243V5.0835Z" fill="#009FA6"/>
<path d="M174.761 5.0835H169.939V26.1996H174.761V5.0835Z" fill="#009FA6"/>
<path d="M187.011 13.2954H171.242V18.1182H187.011V13.2954Z" fill="#009FA6"/>
<path d="M161.729 30.7619V26.3301H146.221V30.7619H141.399V24.8963C141.399 22.9411 142.963 21.377 144.917 21.377H163.162C165.117 21.377 166.681 22.9411 166.681 24.8963V30.7619H161.729Z" fill="#009FA6"/>
<path d="M146.742 26.3297L144.135 23.7228V13.8165C144.135 8.4723 148.436 4.04053 153.909 4.04053C159.253 4.04053 163.684 8.4723 163.684 13.8165V23.7228L161.077 26.3297H146.742ZM153.909 8.99369C151.173 8.99369 149.088 11.2096 149.088 13.8165V21.3766H158.862V13.8165C158.862 11.2096 156.646 8.99369 153.909 8.99369Z" fill="#009FA6"/>
<path d="M203.171 26.8514C198.088 26.8514 193.918 22.6804 193.918 17.5969C193.918 16.5541 194.439 16.4237 195.352 16.4237C196.133 16.4237 197.306 16.2934 197.306 14.5989C197.306 12.2527 199 8.60298 203.562 8.34229C203.692 8.34229 203.953 8.34229 204.083 8.34229C209.035 8.34229 212.815 12.2527 212.815 17.5969C212.815 22.6804 208.644 26.8514 203.562 26.8514H203.171ZM203.171 13.2954C200.825 13.2954 198.87 15.2506 198.87 17.5969C198.87 19.9431 200.825 21.8983 203.171 21.8983H203.562C205.908 21.8983 207.862 19.9431 207.862 17.5969C207.862 15.2506 205.908 13.2954 203.562 13.2954H203.171Z" fill="#009FA6"/>
<path d="M198.74 5.0835H193.918V17.336H198.74V5.0835Z" fill="#009FA6"/>
<path d="M107.385 23.0712C107.255 23.0712 106.994 23.0712 106.864 23.0712C102.302 22.8105 100.608 19.1608 100.608 16.8146C100.608 15.1201 99.4353 15.12 98.6534 14.9897C97.7411 14.9897 97.2198 14.8594 97.2198 13.8166C97.2198 8.73309 101.39 4.56201 106.473 4.56201H106.864C111.946 4.56201 116.116 8.73309 116.116 13.8166C116.116 19.0304 112.337 23.0712 107.385 23.0712ZM106.473 9.51516C104.127 9.51516 102.172 11.4704 102.172 13.8166C102.172 16.1628 104.127 18.118 106.473 18.118H106.864C109.209 18.118 111.164 16.1628 111.164 13.8166C111.164 11.4704 109.209 9.51516 106.864 9.51516H106.473Z" fill="#009FA6"/>
<path d="M102.042 14.0776H97.2198V26.3302H102.042V14.0776Z" fill="#009FA6"/>
<path d="M4.95274 38.3218H0.130859V59.4379H4.95274V38.3218Z" fill="#009FA6"/>
<path d="M16.1603 38.3218H0.130859V43.1446H16.1603V38.3218Z" fill="#009FA6"/>
<path d="M111.946 64.0002V59.5684H96.4378V64.0002H91.616V58.1346C91.616 56.1794 93.1798 54.6152 95.1346 54.6152H113.38C115.334 54.6152 116.898 56.1794 116.898 58.1346V64.0002H111.946Z" fill="#009FA6"/>
<path d="M96.9594 59.4377L94.353 56.8307V47.0548C94.353 41.7106 98.7839 37.2788 104.127 37.2788C109.47 37.2788 113.901 41.7106 113.901 47.0548V56.9611L111.295 59.568H96.9594V59.4377ZM104.127 42.1016C101.39 42.1016 99.3052 44.3175 99.3052 46.9244V54.4845H109.079V47.0548C108.949 44.3175 106.864 42.1016 104.127 42.1016Z" fill="#009FA6"/>
<path d="M54.214 56.1791C54.0837 56.1791 53.823 56.1791 53.6927 56.1791C49.1315 55.9184 47.4373 52.2687 47.4373 49.9225C47.4373 48.228 46.2644 48.228 45.4825 48.0976C44.5702 48.0976 44.049 47.9673 44.049 46.9245C44.049 41.841 48.2192 37.6699 53.3017 37.6699H53.6927C58.7752 37.6699 62.9455 41.841 62.9455 46.9245C62.9455 52.2687 59.1662 56.1791 54.214 56.1791ZM53.3017 42.6231C50.956 42.6231 49.0011 44.5783 49.0011 46.9245C49.0011 49.2707 50.956 51.2259 53.3017 51.2259H53.6927C56.0385 51.2259 57.9933 49.2707 57.9933 46.9245C57.9933 44.5783 56.0385 42.6231 53.6927 42.6231H53.3017Z" fill="#009FA6"/>
<path d="M48.8708 47.1855H44.049V59.4381H48.8708V47.1855Z" fill="#009FA6"/>
<path d="M29.0622 60.6108C22.6765 60.6108 17.4636 55.397 17.4636 49.01C17.4636 42.623 22.6765 37.4092 29.0622 37.4092C35.4479 37.4092 40.6608 42.623 40.6608 49.01C40.6608 55.397 35.4479 60.6108 29.0622 60.6108ZM29.0622 42.232C25.2829 42.232 22.2855 45.2299 22.2855 49.01C22.2855 52.79 25.2829 55.788 29.0622 55.788C32.8415 55.788 35.8389 52.79 35.8389 49.01C35.8389 45.2299 32.7112 42.232 29.0622 42.232Z" fill="#009FA6"/>
<path d="M77.9324 60.6108C71.5467 60.6108 66.3339 55.397 66.3339 49.01C66.3339 42.623 71.5467 37.4092 77.9324 37.4092C84.3181 37.4092 89.531 42.623 89.531 49.01C89.531 55.397 84.3181 60.6108 77.9324 60.6108ZM77.9324 42.232C74.1531 42.232 71.1557 45.2299 71.1557 49.01C71.1557 52.79 74.1531 55.788 77.9324 55.788C81.7117 55.788 84.7091 52.79 84.7091 49.01C84.7091 45.2299 81.5814 42.232 77.9324 42.232Z" fill="#009FA6"/>
<path d="M126.282 46.2729V38.1914H127.064V45.4908H131.885V38.1914H132.667V46.2729H126.282ZM133.189 48.2281V46.1425L133.449 46.4032H131.885V45.6211H133.971V48.2281H133.189Z" fill="#E50000"/>
<path d="M136.447 45.6212H141.269V46.4032H135.534V38.3218H141.008V39.1038H136.316V45.6212H136.447ZM136.316 41.8411H140.617V42.6232H136.316V41.8411Z" fill="#E50000"/>
<path d="M143.875 46.2729H142.963V38.1914H143.875V46.2729ZM148.958 42.6232H143.745V41.8411H148.958V42.6232ZM148.827 38.3218H149.609V46.4032H148.827V38.3218Z" fill="#E50000"/>
<path d="M153.91 46.2729V38.7128L154.17 38.9735H151.173V38.1914H157.689V38.9735H154.692L154.952 38.7128V46.2729H153.91Z" fill="#E50000"/>
<path d="M158.862 46.2729V38.1914H161.859C162.511 38.1914 163.162 38.3218 163.553 38.5824C163.944 38.8431 164.466 39.1038 164.726 39.4949C164.987 39.8859 165.117 40.4073 165.117 40.9287C165.117 41.4501 164.987 41.9714 164.726 42.3625C164.466 42.7535 164.075 43.1446 163.553 43.2749C163.032 43.4053 162.511 43.6659 161.859 43.6659H159.383L159.774 43.2749V46.1425H158.862V46.2729ZM159.774 43.4053L159.383 43.0142H161.859C162.641 43.0142 163.293 42.8839 163.684 42.4928C164.075 42.1018 164.335 41.7108 164.335 41.059C164.335 40.4073 164.075 39.8859 163.684 39.6252C163.293 39.3645 162.641 39.1038 161.859 39.1038H159.383L159.774 38.7128V43.4053Z" fill="#E50000"/>
<path d="M168.636 46.2729L172.285 38.1914H173.067L176.716 46.2729H175.803L172.415 38.7128H172.806L169.418 46.2729H168.636ZM170.069 44.1873L170.33 43.5356H175.021L175.282 44.1873H170.069Z" fill="#E50000"/>
<path d="M176.976 48.0977V45.6211H185.578V48.0977H184.796V46.2728H177.758V48.0977H176.976ZM183.492 45.8818V38.9735H179.713L179.583 40.9286C179.583 41.5804 179.583 42.1018 179.453 42.6232C179.322 43.1445 179.322 43.6659 179.192 44.057C179.062 44.448 178.931 44.839 178.801 45.0997C178.671 45.3604 178.41 45.4908 178.149 45.6211L177.237 45.4908C177.498 45.4908 177.758 45.3604 178.019 45.0997C178.28 44.839 178.41 44.5783 178.54 44.057C178.671 43.5356 178.671 43.1445 178.801 42.4928C178.931 41.8411 178.931 41.3197 178.931 40.668L179.062 38.061H184.405V45.6211H183.492V45.8818Z" fill="#E50000"/>
<path d="M185.969 46.2729L189.617 38.1914H190.399L194.048 46.2729H193.136L189.748 38.7128H190.139L186.75 46.2729H185.969ZM187.402 44.1873L187.663 43.5356H192.354L192.615 44.1873H187.402Z" fill="#E50000"/>
<path d="M195.612 46.2729V38.1914H202.389V46.2729H201.607V38.7128L201.868 38.9735H196.394L196.655 38.7128V46.2729H195.612Z" fill="#E50000"/>
<path d="M206.559 46.2729V38.7128L206.82 38.9735H203.823V38.1914H210.339V38.9735H207.341L207.602 38.7128V46.2729H206.559Z" fill="#E50000"/>
<path d="M209.948 46.2729L213.597 38.1914H214.379L218.028 46.2729H217.115L213.727 38.7128H214.118L210.73 46.2729H209.948ZM211.381 44.1873L211.642 43.5356H216.333L216.594 44.1873H211.381Z" fill="#E50000"/>
<path d="M219.591 46.2729V38.1914H220.373V45.4908H225.195V38.1914H225.977V46.2729H219.591ZM226.629 48.2281V46.1425L226.889 46.4032H225.325V45.6211H227.411V48.2281H226.629Z" fill="#E50000"/>
<path d="M228.193 46.2729V38.1914H228.975V44.8391L234.057 38.1914H234.839V46.2729H234.057V39.6252L228.975 46.2729H228.193Z" fill="#E50000"/>
<path d="M236.794 46.2729V38.1914H237.576V44.8391L242.658 38.1914H243.44V46.2729H242.658V39.6252L237.576 46.2729H236.794Z" fill="#E50000"/>
<path d="M126.282 59.4379V51.3564H127.064V58.0041L132.146 51.3564H132.928V59.4379H132.146V52.7902L127.064 59.4379H126.282Z" fill="#E50000"/>
<path d="M138.401 59.4379V51.3564H141.399C142.05 51.3564 142.702 51.4868 143.093 51.7475C143.484 52.0082 144.005 52.2689 144.266 52.6599C144.527 53.0509 144.657 53.5723 144.657 54.0937C144.657 54.6151 144.527 55.1365 144.266 55.5275C144.005 55.9186 143.614 56.3096 143.093 56.4399C142.572 56.5703 142.05 56.831 141.399 56.831H138.923L139.314 56.4399V59.3076H138.401V59.4379ZM139.314 56.5703L138.923 56.1793H141.399C142.181 56.1793 142.832 56.0489 143.223 55.6579C143.614 55.2668 143.875 54.8758 143.875 54.2241C143.875 53.5723 143.614 53.0509 143.223 52.7902C142.832 52.5295 142.181 52.2689 141.399 52.2689H138.923L139.314 51.8778V56.5703Z" fill="#E50000"/>
<path d="M144.787 59.4379L148.436 51.3564H149.218L152.867 59.4379H151.955L148.567 51.8778H148.957L145.569 59.4379H144.787ZM146.221 57.3524L146.481 56.7006H151.173L151.434 57.3524H146.221Z" fill="#E50000"/>
<path d="M153.388 58.5255L153.649 57.8738C154.04 58.1345 154.431 58.3952 154.822 58.5255C155.213 58.6559 155.734 58.7862 156.125 58.7862C156.516 58.7862 157.037 58.7862 157.298 58.6559C157.559 58.5255 157.95 58.3952 158.21 58.1345C158.471 57.8738 158.601 57.6131 158.601 57.2221C158.601 56.7007 158.471 56.44 158.08 56.1793C157.689 55.9186 157.168 55.7882 156.516 55.7882H154.822V55.1365H156.516C157.037 55.1365 157.559 55.0062 157.819 54.7455C158.08 54.4848 158.34 54.2241 158.34 53.7027C158.34 53.442 158.21 53.1813 158.08 52.9206C157.95 52.6599 157.689 52.5296 157.298 52.3993C156.907 52.2689 156.646 52.2689 156.255 52.2689C155.864 52.2689 155.473 52.2689 155.082 52.3993C154.691 52.5296 154.301 52.6599 153.91 52.9206L153.649 52.2689C154.17 52.0082 154.561 51.7475 155.082 51.6172C155.604 51.4868 156.125 51.4868 156.516 51.4868C156.907 51.4868 157.428 51.6172 157.819 51.8779C158.21 52.1386 158.471 52.2689 158.731 52.6599C158.992 53.051 159.122 53.3117 159.122 53.7027C159.122 54.0938 158.992 54.4848 158.862 54.7455C158.731 55.0062 158.34 55.2669 158.08 55.3972C157.819 55.5275 157.298 55.6579 156.907 55.6579V55.3972C157.428 55.3972 157.95 55.5276 158.34 55.6579C158.731 55.7883 158.992 56.0489 159.253 56.3096C159.513 56.5703 159.644 56.9614 159.644 57.3524C159.644 57.7434 159.513 58.1345 159.383 58.3952C159.253 58.6559 158.862 58.9166 158.601 59.1773C158.341 59.4379 157.819 59.5683 157.428 59.5683C157.037 59.5683 156.516 59.6986 156.125 59.6986C155.734 59.6986 155.213 59.5683 154.822 59.4379C154.431 59.3076 153.779 58.7862 153.388 58.5255Z" fill="#E50000"/>
<path d="M161.468 59.4379V51.3564H164.857C165.769 51.3564 166.42 51.4868 166.811 51.8778C167.202 52.2689 167.593 52.7902 167.593 53.442C167.593 54.0937 167.333 54.6151 166.942 55.0061C166.551 55.3972 165.899 55.5275 165.117 55.5275L165.248 55.2668C166.16 55.2668 166.811 55.3972 167.333 55.7882C167.854 56.1792 167.984 56.7006 167.984 57.3524C167.984 58.0041 167.724 58.5255 167.202 58.9165C166.681 59.3076 166.029 59.4379 164.987 59.4379H161.468ZM162.381 55.1365H164.857C165.508 55.1365 165.899 55.0061 166.29 54.7454C166.681 54.4847 166.811 54.0937 166.811 53.7027C166.811 53.3116 166.681 52.7903 166.29 52.6599C165.899 52.5296 165.508 52.2689 164.857 52.2689H162.381V55.1365ZM162.381 58.7862H165.117C165.769 58.7862 166.29 58.6558 166.681 58.3951C167.072 58.1344 167.202 57.7434 167.202 57.222C167.202 56.7006 167.072 56.3096 166.681 56.0489C166.29 55.7882 165.769 55.6579 165.117 55.6579H162.381V58.7862Z" fill="#E50000"/>
<path d="M169.939 59.4379V51.3564H170.721V58.0041L175.803 51.3564H176.585V59.4379H175.803V52.7902L170.721 59.4379H169.939Z" fill="#E50000"/>
<path d="M180.886 59.4379V51.8778L181.147 52.1385H178.149V51.3564H184.665V52.1385H181.668L181.929 51.8778V59.4379H180.886Z" fill="#E50000"/>
<path d="M185.838 59.4379V51.3564H186.62V58.0041L191.703 51.3564H192.485V59.4379H191.703V52.7902L186.62 59.4379H185.838Z" fill="#E50000"/>
<path d="M200.043 59.4379V56.831L200.304 57.0917H197.698C197.046 57.0917 196.525 56.9614 196.003 56.7007C195.482 56.44 195.222 56.1793 194.961 55.7882C194.7 55.3972 194.57 54.8758 194.57 54.3544C194.57 53.7027 194.7 53.1813 194.961 52.7903C195.222 52.3992 195.613 52.0082 196.003 51.8779C196.394 51.7475 197.046 51.4868 197.698 51.4868H200.825V59.5683H200.043V59.4379ZM194.57 59.4379L196.525 56.5703H197.437L195.482 59.4379H194.57ZM200.043 56.5703V51.8779L200.304 52.1385H197.828C197.046 52.1385 196.525 52.2689 196.134 52.6599C195.743 53.051 195.482 53.5724 195.482 54.2241C195.482 54.8758 195.613 55.3972 196.003 55.7882C196.394 56.1793 196.916 56.3096 197.698 56.3096H200.304L200.043 56.5703Z" fill="#E50000"/>
</svg>
